PathFileType	4	(X/Y/Z)	/Users/itak/Documents/Research/Walk-IL/dataset/trc/00429_00167.trc
DataRate	CameraRate	NumFrames	NumMarkers	Units	OrigDataRate	OrigDataStartFrame	OrigNumFrames
100.000000	100.000000	4	53	mm	100.000000	0	673
Frame#	Time	RPSI			LPSI			L3			STRN			T10			C7			CLAV			RBAK			LBAK			LSHO			LUPA			LAEL			LAOL			LWTS			LWPS			LFRA			LIFD			LHPS			LHTS			RSHO			RUPA			RAEL			RAOL			RWTS			RWPS			RFRA			RIFD			RHTS			RHPS			RBHD			LFHD			RFHD			LBHD			LHIP			RHIP			RASI			LASI			LKNE			LTHI			LANK			LTIP			LTOE			LMT1			LMT5			LHEE			RKNE			RTHI			RANK			RTIP			RTOE			RMT1			RMT5			RHEE			
		X1	Y1	Z1	X2	Y2	Z2	X3	Y3	Z3	X4	Y4	Z4	X5	Y5	Z5	X6	Y6	Z6	X7	Y7	Z7	X8	Y8	Z8	X9	Y9	Z9	X10	Y10	Z10	X11	Y11	Z11	X12	Y12	Z12	X13	Y13	Z13	X14	Y14	Z14	X15	Y15	Z15	X16	Y16	Z16	X17	Y17	Z17	X18	Y18	Z18	X19	Y19	Z19	X20	Y20	Z20	X21	Y21	Z21	X22	Y22	Z22	X23	Y23	Z23	X24	Y24	Z24	X25	Y25	Z25	X26	Y26	Z26	X27	Y27	Z27	X28	Y28	Z28	X29	Y29	Z29	X30	Y30	Z30	X31	Y31	Z31	X32	Y32	Z32	X33	Y33	Z33	X34	Y34	Z34	X35	Y35	Z35	X36	Y36	Z36	X37	Y37	Z37	X38	Y38	Z38	X39	Y39	Z39	X40	Y40	Z40	X41	Y41	Z41	X42	Y42	Z42	X43	Y43	Z43	X44	Y44	Z44	X45	Y45	Z45	X46	Y46	Z46	X47	Y47	Z47	X48	Y48	Z48	X49	Y49	Z49	X50	Y50	Z50	X51	Y51	Z51	X52	Y52	Z52	X53	Y53	Z53	

1	0	-1176.696166992188	977.0061645507812	-452.4950561523438	-1093.540161132812	973.0582885742188	-567.1585083007812	-1131.3525390625	1063.359619140625	-491.2326049804688	-909.2459716796875	1255.571411132812	-353.2456970214844	-1147.046875	1186.66162109375	-508.0521240234375	-1103.335083007812	1455.96630859375	-466.5828552246094	-938.5245361328125	1369.467529296875	-376.6885375976562	-1206.29150390625	1335.561767578125	-418.8760375976562	-1074.717529296875	1407.91552734375	-567.4659423828125	-943.9395141601562	1426.246948242188	-576.39306640625	-895.6318359375	1306.218505859375	-661.8070678710938	-851.700927734375	1090.817993164062	-667.6669921875	-953.8890991210938	1071.6220703125	-660.6868896484375	-800.2872924804688	897.4712524414062	-572.507080078125	-804.6975708007812	876.720458984375	-643.8731689453125	-824.7042846679688	1005.120910644531	-658.5148315429688	-787.9541625976562	727.985595703125	-564.2958374023438	-795.506591796875	796.9728393554688	-634.178466796875	-777.7297973632812	808.7409057617188	-566.3148803710938	-1128.183959960938	1425.141845703125	-292.3577880859375	-1181.667602539062	1364.078491210938	-234.6748809814453	-1195.817016601562	1075.312377929688	-180.3017425537109	-1229.156005859375	1058.622436523438	-237.2082214355469	-1080.481079101562	878.2671508789062	-182.9250030517578	-1163.070434570312	861.5325317382812	-156.9911956787109	-1194.507934570312	1016.704528808594	-170.4117431640625	-1074.393920898438	722.2443237304688	-153.0947875976562	-1068.18212890625	782.2656860351562	-156.3239593505859	-1143.290649414062	777.67724609375	-144.40673828125	-1086.092651367188	1650.212890625	-355.0194091796875	-886.6524658203125	1671.080932617188	-410.0995483398438	-958.8271484375	1670.535400390625	-301.0574645996094	-1000.412536621094	1654.914794921875	-510.7158813476562	-922.0783081054688	860.6500244140625	-589.2422485351562	-1163.6943359375	864.432373046875	-276.4087829589844	-1042.748413085938	900.9175415039062	-263.0654907226562	-882.9237670898438	894.9219360351562	-466.2279663085938	-965.3558349609375	437.3360900878906	-560.6336669921875	-925.4343872070312	586.7825317382812	-565.3936767578125	-1024.285278320312	33.78203964233398	-581.9151000976562	-967.452392578125	286.9578857421875	-567.0604858398438	-887.0927734375	45.51922607421875	-393.8755187988281	-963.446044921875	50.33261871337891	-414.9983825683594	-895.22412109375	44.91919326782227	-506.0902404785156	-1098.811767578125	38.30399703979492	-575.8634033203125	-1135.4482421875	463.4954223632812	-307.0233459472656	-1134.077270507812	726.22607421875	-249.3566284179688	-1154.56982421875	42.58419418334961	-342.4105834960938	-1143.399536132812	317.88525390625	-302.7301025390625	-944.6416015625	47.66169357299805	-277.8883361816406	-982.9323120117188	53.72836303710938	-340.0701599121094	-1050.589233398438	49.86429214477539	-256.1594848632812	-1189.255249023438	35.05287551879883	-415.9688720703125	
2	0.01	-1176.552368164062	977.04638671875	-452.4278869628906	-1093.392944335938	973.1334838867188	-567.0630493164062	-1131.201171875	1063.353881835938	-491.1216125488281	-909.2171630859375	1255.55615234375	-353.0153198242188	-1146.867919921875	1186.621948242188	-507.9827575683594	-1103.16162109375	1455.957763671875	-466.5388488769531	-938.4497680664062	1369.444213867188	-376.5325317382812	-1206.16650390625	1335.540161132812	-418.9458618164062	-1074.543701171875	1407.9033203125	-567.416015625	-943.7660522460938	1426.20751953125	-576.2457275390625	-895.3800048828125	1306.195068359375	-661.6320190429688	-851.3526000976562	1090.8095703125	-667.4814453125	-953.5261840820312	1071.651611328125	-660.5518798828125	-799.9434204101562	897.4982299804688	-572.2805786132812	-804.3646850585938	876.7545166015625	-643.6281127929688	-824.3911743164062	1005.142028808594	-658.3002319335938	-787.1467895507812	728.2220458984375	-563.9108276367188	-795.0838012695312	796.994873046875	-633.8890991210938	-777.434814453125	808.7702026367188	-566.027587890625	-1128.17041015625	1425.103881835938	-292.3033752441406	-1181.713012695312	1364.028686523438	-234.7058410644531	-1196.077514648438	1075.241577148438	-180.5356903076172	-1229.261596679688	1058.620849609375	-237.5678253173828	-1080.9287109375	878.1339721679688	-183.0149383544922	-1163.600219726562	861.4559326171875	-157.2814178466797	-1194.828491210938	1016.619262695312	-170.6943206787109	-1075.036376953125	722.1631469726562	-152.84765625	-1068.769653320312	782.1961669921875	-156.1768188476562	-1143.888061523438	777.6260375976562	-144.4876708984375	-1085.940795898438	1650.148559570312	-354.9093627929688	-886.626953125	1671.138671875	-410.0161743164062	-958.8292846679688	1670.62353515625	-301.029296875	-1000.375427246094	1654.894287109375	-510.69580078125	-921.8690185546875	860.5855102539062	-589.0469360351562	-1163.6748046875	864.4491577148438	-276.3190612792969	-1042.747314453125	900.901123046875	-262.8917541503906	-882.8018798828125	894.9014282226562	-466.0541076660156	-965.2840576171875	437.3248291015625	-560.5353393554688	-925.2652587890625	586.8171997070312	-565.205078125	-1024.286376953125	33.78287506103516	-581.9150390625	-967.4273071289062	286.9509582519531	-566.9841918945312	-887.0966796875	45.51341247558594	-393.8694763183594	-963.4443969726562	50.32632827758789	-414.9884948730469	-895.2234497070312	44.92447280883789	-506.0840148925781	-1098.80078125	38.31414413452148	-575.8671264648438	-1135.511474609375	463.5038452148438	-307.0067749023438	-1134.09765625	726.230224609375	-249.2890167236328	-1154.576171875	42.57622528076172	-342.4129333496094	-1143.457641601562	317.892822265625	-302.7156066894531	-944.6461791992188	47.66262817382812	-277.8804931640625	-982.9425048828125	53.73650360107422	-340.0498962402344	-1050.6142578125	49.85620498657227	-256.1118774414062	-1189.256591796875	35.05173110961914	-415.9686889648438	
3	0.02	-1176.37646484375	977.0971069335938	-452.32861328125	-1093.237915039062	973.242919921875	-566.9534301757812	-1131.013671875	1063.341430664062	-490.9868469238281	-909.1741943359375	1255.54052734375	-352.7374267578125	-1146.634155273438	1186.571899414062	-507.8973693847656	-1102.944213867188	1455.949340820312	-466.481201171875	-938.3558349609375	1369.41455078125	-376.3429870605469	-1206.005004882812	1335.51416015625	-419.031005859375	-1074.325805664062	1407.8896484375	-567.3521118164062	-943.5494384765625	1426.162109375	-576.062744140625	-895.07666015625	1306.172729492188	-661.4236450195312	-850.9432983398438	1090.797729492188	-667.2616577148438	-953.08056640625	1071.67626953125	-660.3818359375	-799.5502319335938	897.5234985351562	-572.0137329101562	-803.9749145507812	876.79345703125	-643.346923828125	-824.0126342773438	1005.162536621094	-658.0443115234375	-786.2517700195312	728.4806518554688	-563.4796752929688	-794.600830078125	797.0139770507812	-633.5546875	-777.092529296875	808.80517578125	-565.69775390625	-1128.152587890625	1425.059814453125	-292.2383728027344	-1181.7724609375	1363.966918945312	-234.7476348876953	-1196.401000976562	1075.155517578125	-180.8194732666016	-1229.391357421875	1058.613647460938	-238.0104064941406	-1081.47412109375	877.9599609375	-183.1070404052734	-1164.2509765625	861.3544311523438	-157.6231536865234	-1195.226318359375	1016.521423339844	-171.0381469726562	-1075.834716796875	722.0296630859375	-152.6380004882812	-1069.5048828125	782.0763549804688	-156.0202484130859	-1144.642944335938	777.5364990234375	-144.6299896240234	-1085.761962890625	1650.0751953125	-354.7781372070312	-886.5870971679688	1671.207275390625	-409.9140319824219	-958.8233032226562	1670.72705078125	-300.9893188476562	-1000.323791503906	1654.869873046875	-510.666259765625	-921.6331787109375	860.5083618164062	-588.8187255859375	-1163.645263671875	864.4710083007812	-276.2041625976562	-1042.744018554688	900.8843994140625	-262.6730651855469	-882.6574096679688	894.8717041015625	-465.8495178222656	-965.2052612304688	437.3129272460938	-560.4222412109375	-925.085693359375	586.8466186523438	-564.9817504882812	-1024.287963867188	33.78426361083984	-581.9147338867188	-967.3958129882812	286.9436950683594	-566.89306640625	-887.1004028320312	45.50613784790039	-393.8623046875	-963.4451904296875	50.31938552856445	-414.9765014648438	-895.225341796875	44.92899703979492	-506.0770263671875	-1098.789184570312	38.32550811767578	-575.8707275390625	-1135.598022460938	463.5165710449219	-306.9794311523438	-1134.120361328125	726.2332763671875	-249.1978302001953	-1154.584716796875	42.56464385986328	-342.4143981933594	-1143.54345703125	317.9042663574219	-302.69580078125	-944.6547241210938	47.66413879394531	-277.8681335449219	-982.9571533203125	53.74889373779297	-340.0237731933594	-1050.649291992188	49.84357833862305	-256.0541076660156	-1189.25927734375	35.04898834228516	-415.9664306640625	
4	0.03	-1176.1787109375	977.1569213867188	-452.1942749023438	-1093.093139648438	973.3841552734375	-566.8386840820312	-1130.799194335938	1063.321166992188	-490.8356018066406	-909.1151123046875	1255.5263671875	-352.4295349121094	-1146.35302734375	1186.515380859375	-507.7991333007812	-1102.69287109375	1455.942749023438	-466.4111022949219	-938.2461547851562	1369.380249023438	-376.1302795410156	-1205.811889648438	1335.485961914062	-419.1252746582031	-1074.069213867188	1407.875732421875	-567.2754516601562	-943.2990112304688	1426.114379882812	-575.853271484375	-894.7377319335938	1306.154907226562	-661.1954345703125	-850.5057983398438	1090.78369140625	-667.0235595703125	-952.5767211914062	1071.691528320312	-660.1881103515625	-799.1427001953125	897.5421752929688	-571.7266235351562	-803.5567016601562	876.83349609375	-643.05322265625	-823.5916137695312	1005.179138183594	-657.7650146484375	-785.3670654296875	728.7305297851562	-563.046142578125	-794.100830078125	797.0254516601562	-633.204345703125	-776.730224609375	808.8416137695312	-565.353759765625	-1128.130249023438	1425.013427734375	-292.1666870117188	-1181.843383789062	1363.897338867188	-234.7984924316406	-1196.771118164062	1075.059814453125	-181.1355895996094	-1229.5380859375	1058.599365234375	-238.5112915039062	-1082.08349609375	877.7514038085938	-183.1872406005859	-1164.986694335938	861.2313842773438	-157.9904937744141	-1195.682006835938	1016.419250488281	-171.4219512939453	-1076.757690429688	721.8361206054688	-152.5180816650391	-1070.354370117188	781.8972778320312	-155.877685546875	-1145.522094726562	777.4002075195312	-144.8512420654297	-1085.567016601562	1649.99853515625	-354.6337280273438	-886.5307006835938	1671.282104492188	-409.7987060546875	-958.8048095703125	1670.837890625	-300.9368286132812	-1000.257507324219	1654.842895507812	-510.62646484375	-921.3897705078125	860.4241333007812	-588.5728149414062	-1163.603149414062	864.4970092773438	-276.0682983398438	-1042.736450195312	900.8696899414062	-262.4192504882812	-882.4981079101562	894.8331298828125	-465.6253967285156	-965.1268920898438	437.3019409179688	-560.30419921875	-924.9127807617188	586.8649291992188	-564.738525390625	-1024.28955078125	33.78627777099609	-581.9140625	-967.35791015625	286.9375305175781	-566.79296875	-887.103759765625	45.49822235107422	-393.8544921875	-963.4493408203125	50.31238174438477	-414.9630432128906	-895.2301635742188	44.93244552612305	-506.0698547363281	-1098.778442382812	38.33731460571289	-575.8734741210938	-1135.708618164062	463.5342712402344	-306.9398498535156	-1134.1435546875	726.2348022460938	-249.0830383300781	-1154.595703125	42.54890060424805	-342.4151611328125	-1143.657836914062	317.919921875	-302.6710205078125	-944.6683349609375	47.66632461547852	-277.8508605957031	-982.9758911132812	53.76602935791016	-339.9918823242188	-1050.693359375	49.82610321044922	-255.9897308349609	-1189.264038085938	35.04385757446289	-415.9610900878906	
